<?xml version="1.0" encoding="utf-8"?>
<!-- Generator: Adobe Illustrator 25.0.1, SVG Export Plug-In . SVG Version: 6.00 Build 0)  -->
<svg version="1.1" id="Warstwa_1" xmlns="http://www.w3.org/2000/svg" xmlns:xlink="http://www.w3.org/1999/xlink" x="0px" y="0px"
	 viewBox="0 0 32 32" style="enable-background:new 0 0 32 32;" xml:space="preserve">
<path d="M1.3,2.5C0.6,2.5,0,3.1,0,3.9s0.6,1.3,1.3,1.3h3l3.5,14.1c0.3,1.2,1.4,2,2.6,2h1.6h12.1h1.7c1.2,0,2.2-0.8,2.6-2L32,6.6H9.4
	l0.7,2.7h18.4l-2.6,9.4H10.5L6.9,4.5c-0.3-1.2-1.4-2-2.6-2H1.3z M24.3,21.4c-2.2,0-4,1.8-4,4s1.8,4,4,4s4-1.8,4-4
	S26.5,21.4,24.3,21.4z M12.1,21.4c-2.2,0-4,1.8-4,4s1.8,4,4,4s4-1.8,4-4S14.3,21.4,12.1,21.4z M12.1,24.1c0.8,0,1.3,0.6,1.3,1.3
	c0,0.8-0.6,1.3-1.3,1.3s-1.3-0.6-1.3-1.3C10.8,24.7,11.4,24.1,12.1,24.1z M24.3,24.1c0.8,0,1.3,0.6,1.3,1.3c0,0.8-0.6,1.3-1.3,1.3
	c-0.8,0-1.3-0.6-1.3-1.3C22.9,24.7,23.5,24.1,24.3,24.1z"/>
</svg>
